<mxfile host="app.diagrams.net" modified="2023-11-08T07:31:21.420Z" agent="Mozilla/5.0 (Macintosh; Intel Mac OS X 10_15_7) AppleWebKit/537.36 (KHTML, like Gecko) Chrome/117.0.0.0 Safari/537.36" version="21.6.5" etag="D0cGdpAiLijgxNYj-HGP" type="github">
  <diagram name="第 1 页" id="g4hASfduYWke274bOboM">
    <mxGraphModel>
      <root>
        <mxCell id="0" />
        <mxCell id="1" parent="0" />
      </root>
    </mxGraphModel>
  </diagram>
</mxfile>
